# xmcd CD database file
#
# Track frame offsets:
#	150
#	28808
#	50654
#	78727
#	107210
#	131236
#	161843
#	177764
#	192199
#	219349
#	238191
#	263035
#	285714
#	312361
#
# Disc length: 4367 seconds
#
# Revision: 0
# Processed by: cddbd v1.5.2PL0 Copyright (c) Steve Scherf et al.
# Submitted via: CDex 1.97
#
DISCID=d3110d0e
DTITLE=Various Artist - Belgian New Beat [CD2)
DYEAR=2018
DGENRE=New Beat
TTITLE0=BPM AM - Come To Me (Vocal Version)
TTITLE1=A Split Second - Flesh
TTITLE2=Acts Of Madmen - The Dream
TTITLE3=House Boys - Touch My Lips
TTITLE4=Amnesia - Hysteria (Defcon Mix)
TTITLE5=Erotic Dissidents - Move Your Ass And Feel The Beat (Instrumental)
TTITLE6=Ugly Mood - Tuning Off
TTITLE7=Philadelphia Five - BongaWalk (Mix II)
TTITLE8=Belgavox - Wise Crack (Oh Mon Amour) (Garage Mix)
TTITLE9=T-R-P - This Is The Place (Dance Mix)
TTITLE10=Nasty Thoughts - Acid Sex (Acid Version)
TTITLE11=Ghostdance - Ghostbeat (New Beat Mix)
TTITLE12=Fatal Error - Fatal Error
TTITLE13=Zerocks - You Too (Bonzo Mix)
EXTD=YEAR: 2018
EXTT0=
EXTT1=
EXTT2=
EXTT3=
EXTT4=
EXTT5=
EXTT6=
EXTT7=
EXTT8=
EXTT9=
EXTT10=
EXTT11=
EXTT12=
EXTT13=
PLAYORDER=
